<svg xmlns="http://www.w3.org/2000/svg" width="800" height="400"><polygon points="50,350 50.0,50.08265040326529 62.96296296296296,50.0 75.92592592592592,50.2439985129696 88.88888888888889,50.784826761425336 101.85185185185185,51.64441068800028 114.81481481481482,54.15520530928552 127.77777777777779,54.93365628073309 140.74074074074076,55.65773883357207 153.7037037037037,56.39113785766756 166.66666666666669,56.75647504846802 179.62962962962965,56.98108325612213 192.5925925925926,57.2216653730174 205.55555555555557,57.408303518109676 218.51851851851853,57.584041674438254 231.4814814814815,58.38327328386714 244.44444444444446,63.115936727473525 257.4074074074074,63.607092314061845 270.3703703703704,64.14136109739314 283.33333333333337,66.37991053729644 296.2962962962963,66.29108078826567 309.2592592592593,66.19793091542408 322.22222222222223,66.06936383448664 335.1851851851852,60.460838474915306 348.14814814814815,59.93232903862679 361.11111111111114,58.81034917488864 374.0740740740741,57.668682824867744 387.03703703703707,57.15225848466736 400.0,56.733314609452236 412.962962962963,56.51687319701125 425.9259259259259,56.57306904912025 438.8888888888889,56.77731554384059 451.85185185185185,57.48275928729828 464.81481481481484,58.1292232155987 477.7777777777778,58.98577600376086 490.74074074074076,59.57939003526576 503.70370370370375,59.5897704802793 516.6666666666667,57.52263508495747 529.6296296296297,56.297026163593216 542.5925925925926,56.208762778219466 555.5555555555557,56.00416795259457 568.5185185185186,56.91301731137963 581.4814814814815,57.901152213764306 594.4444444444445,59.05009616422234 607.4074074074074,60.6993652324079 620.3703703703704,62.819131571479886 633.3333333333334,62.254994831870306 646.2962962962963,62.30774959337583 659.2592592592592,60.19154283263248 672.2222222222223,59.0431809675037 685.1851851851852,54.5555316952408 698.1481481481482,51.81683003765926 711.1111111111112,51.061053015334664 724.0740740740741,51.767806604165344 737.0370370370371,52.12244508195272 750.0,51.51169749532215 750,350 50,350" stroke="red" fill="none" stroke-width="2" /></svg>